<?xml version="1.0" standalone="no"?>
<!DOCTYPE svg PUBLIC "-//W3C//DTD SVG 20010904//EN"
 "http://www.w3.org/TR/2001/REC-SVG-20010904/DTD/svg10.dtd">
<svg version="1.0" xmlns="http://www.w3.org/2000/svg"
 width="700.000000pt" height="700.000000pt" viewBox="0 0 700.000000 700.000000"
 preserveAspectRatio="xMidYMid meet">
<metadata>
Created by potrace 1.14, written by Peter Selinger 2001-2017
</metadata>
<g transform="translate(0.000000,700.000000) scale(0.100000,-0.100000)"
fill="#000000" stroke="none">
<path d="M0 3500 l0 -3500 3500 0 3500 0 0 3500 0 3500 -3500 0 -3500 0 0
-3500z m3387 2944 l222 -6 -39 -57 c-133 -194 -217 -548 -237 -993 -4 -109 -9
-148 -19 -148 -7 0 -292 41 -634 90 -342 50 -626 90 -631 90 -13 0 -11 286 2
395 42 339 205 551 481 625 77 21 195 21 855 4z m880 -48 c191 -63 375 -282
497 -591 64 -162 116 -393 116 -513 0 -63 -5 -60 165 -97 665 -148 1149 -343
1331 -537 67 -71 94 -124 94 -186 0 -62 -16 -101 -73 -179 -141 -191 -488
-396 -932 -549 -60 -20 -111 -39 -113 -40 -2 -1 262 -438 587 -970 325 -532
588 -971 584 -974 -7 -7 -1519 -420 -1535 -420 -3 0 -158 258 -344 573 -185
314 -343 578 -349 585 -10 11 -84 -146 -360 -752 -192 -421 -349 -766 -349
-766 -1 0 -368 -99 -816 -219 -448 -120 -817 -217 -819 -215 -1 1 250 589 559
1306 309 717 562 1307 563 1312 1 5 -65 22 -147 37 -482 89 -796 212 -969 378
-79 76 -102 123 -102 211 0 68 4 82 38 146 147 275 687 628 1487 973 l185 80
7 238 c18 651 138 1058 342 1158 90 44 239 49 353 11z m-2302 -1196 c110 -16
387 -57 615 -90 228 -33 429 -63 447 -66 29 -6 8 -18 -230 -138 -594 -299
-926 -545 -1095 -811 -74 -116 -111 -264 -93 -374 14 -87 44 -143 118 -221
l63 -67 -283 78 c-324 89 -469 138 -594 203 -226 117 -326 256 -340 471 -7
108 12 195 58 266 70 110 247 252 544 437 156 97 575 341 585 342 3 0 96 -13
205 -30z m8 -2110 c375 -105 689 -193 698 -198 14 -6 -43 -145 -380 -927 -225
-519 -447 -1018 -510 -1145 -62 -124 -115 -226 -116 -228 -3 -3 -1181 574
-1194 584 -2 2 6 30 19 61 85 218 187 492 310 833 173 482 280 761 375 985 92
216 96 225 107 225 5 0 316 -86 691 -190z m2533 -1428 c100 -169 178 -308 174
-310 -7 -3 -571 156 -577 162 -2 1 40 97 93 212 53 115 100 220 105 233 5 13
13 21 16 17 4 -3 89 -145 189 -314z"/>
</g>
</svg>
